<?xml version="1.0" encoding="UTF-8"?>
<svg xmlns="http://www.w3.org/2000/svg" xmlns:xlink="http://www.w3.org/1999/xlink" width="32px" height="32px" viewBox="0 0 32 32" version="1.1">
<g id="surface1">
<path style=" stroke:none;fill-rule:nonzero;fill:rgb(98.823529%,98.823529%,98.823529%);fill-opacity:1;" d="M 27.527344 4.269531 C 27.9375 4.085938 28.25 3.875 28.59375 3.734375 C 29.191406 3.484375 29.941406 3.992188 29.855469 4.625 C 29.660156 6.046875 29.398438 7.457031 29.171875 8.875 C 28.902344 10.5625 28.652344 12.257812 28.371094 13.945312 C 28.125 15.429688 27.839844 16.90625 27.59375 18.390625 C 27.339844 19.941406 27.113281 21.503906 26.871094 23.058594 C 26.730469 23.96875 26.660156 24.898438 26.421875 25.785156 C 26.234375 26.472656 25.640625 26.597656 24.984375 26.371094 C 23.21875 25.753906 21.457031 25.125 19.679688 24.550781 C 19.40625 24.460938 18.949219 24.523438 18.746094 24.703125 C 17.386719 25.925781 16.070312 27.199219 14.746094 28.457031 C 14.121094 29.050781 13.53125 28.910156 13.234375 28.078125 C 12.585938 26.238281 11.921875 24.398438 11.320312 22.542969 C 11.074219 21.78125 10.699219 21.332031 9.882812 21.09375 C 7.921875 20.527344 5.988281 19.855469 4.058594 19.1875 C 3.253906 18.910156 2.4375 18.570312 2.863281 17.347656 C 11 13.019531 19.222656 8.648438 27.527344 4.269531 M 21.796875 9.382812 C 16.53125 12.179688 11.261719 14.976562 5.84375 17.847656 C 7.5625 18.40625 9.140625 18.851562 10.660156 19.445312 C 11.257812 19.679688 11.542969 19.535156 11.914062 19.140625 C 12.519531 18.492188 13.144531 17.859375 13.792969 17.257812 C 16.566406 14.667969 19.355469 12.09375 22.230469 9.429688 C 22.261719 9.359375 22.289062 9.285156 22.316406 9.214844 C 22.199219 9.265625 22.078125 9.320312 21.796875 9.382812 M 26.5625 13.4375 C 26.835938 11.699219 27.105469 9.960938 27.378906 8.222656 C 27.320312 8.207031 27.265625 8.195312 27.210938 8.183594 C 23.816406 12.664062 20.421875 17.140625 17.023438 21.625 C 19.691406 22.550781 22.28125 23.449219 24.820312 24.328125 C 25.160156 22.378906 25.523438 20.5 25.816406 18.609375 C 26.070312 16.945312 26.25 15.269531 26.5625 13.4375 M 18.355469 16.777344 C 19.183594 15.714844 20.015625 14.648438 20.847656 13.585938 C 20.757812 13.503906 20.664062 13.417969 20.574219 13.335938 C 17.878906 15.925781 15.179688 18.515625 12.589844 21.007812 C 13.011719 22.101562 13.4375 23.199219 13.90625 24.410156 C 14.230469 23.285156 14.300781 22.199219 14.824219 21.410156 C 15.867188 19.832031 17.15625 18.417969 18.355469 16.777344 M 20.824219 13.359375 C 20.917969 13.324219 21.011719 13.285156 21.105469 13.25 C 21.027344 13.230469 20.945312 13.210938 20.824219 13.359375 Z M 20.824219 13.359375 "/>
</g>
</svg>
