<?xml version="1.0" encoding="UTF-8"?>
<svg xmlns="http://www.w3.org/2000/svg" xmlns:xlink="http://www.w3.org/1999/xlink" width="32px" height="32px" viewBox="0 0 32 32" version="1.1">
  <defs>
    <linearGradient id="grad1" x1="0%" x2="100%" y1="0%" y2="0%">
      <stop offset="0%" stop-color="yellow" />
      <stop offset="100%" stop-color="red" />
    </linearGradient>
  </defs>
<g id="surface1">
<path style=" stroke:none;fill-rule:nonzero;fill:rgb(100%,100%,100%);fill-opacity:1;" d="M 8.746094 20.691406 C 9.027344 20.765625 9.308594 20.835938 9.601562 20.90625 C 9.535156 21.136719 9.46875 21.363281 9.398438 21.601562 C 9.285156 22.003906 9.171875 22.414062 9.09375 22.828125 C 8.875 23.527344 8.480469 24.117188 8.105469 24.746094 C 7.753906 24.746094 7.402344 24.746094 7.039062 24.746094 C 7.144531 24.542969 7.25 24.34375 7.359375 24.132812 C 7.710938 23.527344 7.710938 23.527344 7.679688 23.039062 C 7.46875 22.898438 7.257812 22.757812 7.039062 22.613281 C 7.039062 22.332031 7.039062 22.050781 7.039062 21.761719 C 7.566406 21.972656 7.566406 21.972656 8.105469 22.1875 C 8.316406 21.695312 8.527344 21.199219 8.746094 20.691406 Z M 8.746094 20.691406 "/>
<path style=" stroke:none;fill-rule:nonzero;fill:rgb(100%,100%,100%);fill-opacity:1;" d="M 16.425781 8.746094 C 16.953125 8.957031 16.953125 8.957031 17.492188 9.171875 C 17.417969 9.328125 17.34375 9.480469 17.265625 9.640625 C 17.042969 10.304688 17.089844 10.640625 17.28125 11.308594 C 17 11.308594 16.71875 11.308594 16.425781 11.308594 C 16.425781 11.09375 16.425781 10.882812 16.425781 10.667969 C 16.074219 10.949219 15.722656 11.230469 15.359375 11.519531 C 15.171875 11.09375 15.171875 11.09375 15.148438 10.453125 C 15.515625 9.835938 15.960938 9.292969 16.425781 8.746094 Z M 16.425781 8.746094 "/>
<path style=" stroke:none;fill-rule:nonzero;fill:rgb(100%,100%,100%);fill-opacity:1;" d="M 4.691406 27.09375 C 4.691406 27.445312 4.691406 27.796875 4.691406 28.160156 C 4.246094 28.410156 3.796875 28.660156 3.347656 28.90625 C 3.21875 28.976562 3.09375 29.050781 2.960938 29.121094 C 2.355469 29.453125 1.984375 29.652344 1.28125 29.652344 C 1.292969 29.285156 1.292969 29.285156 1.492188 28.800781 C 1.988281 28.460938 2.457031 28.171875 2.988281 27.894531 C 3.125 27.816406 3.265625 27.738281 3.410156 27.660156 C 4.4375 27.09375 4.4375 27.09375 4.691406 27.09375 Z M 4.691406 27.09375 "/>
<path style=" stroke:none;fill-rule:nonzero;fill:rgb(100%,100%,100%);fill-opacity:1;" d="M 28.375 3.199219 C 28.585938 3.410156 28.796875 3.621094 29.011719 3.839844 C 27.964844 4.605469 26.96875 5.210938 25.613281 5.039062 C 25.46875 4.996094 25.324219 4.953125 25.171875 4.90625 C 25.171875 4.765625 25.171875 4.625 25.171875 4.480469 C 25.351562 4.421875 25.527344 4.367188 25.710938 4.308594 C 25.941406 4.234375 26.175781 4.15625 26.414062 4.078125 C 26.644531 4.003906 26.875 3.929688 27.109375 3.855469 C 27.761719 3.644531 27.761719 3.644531 28.375 3.199219 Z M 28.375 3.199219 "/>
<path style=" stroke:none;fill-rule:nonzero;fill:rgb(100%,100%,100%);fill-opacity:1;" d="M 17.492188 11.945312 C 17.59375 12.078125 17.695312 12.210938 17.800781 12.347656 C 18.554688 12.972656 19.316406 13.070312 20.265625 13.226562 C 20.265625 13.367188 20.265625 13.507812 20.265625 13.652344 C 19.421875 13.652344 18.578125 13.652344 17.707031 13.652344 C 17.496094 13.160156 17.285156 12.667969 17.066406 12.160156 C 17.207031 12.089844 17.347656 12.019531 17.492188 11.945312 Z M 17.492188 11.945312 "/>
<path style=" stroke:none;fill-rule:nonzero;fill:rgb(100%,100%,100%);fill-opacity:1;" d="M 12.160156 21.546875 C 12.441406 21.757812 12.722656 21.96875 13.011719 22.1875 C 11.96875 23.015625 11.136719 23.195312 9.8125 23.253906 C 10.027344 22.613281 10.027344 22.613281 10.460938 22.371094 C 10.632812 22.300781 10.808594 22.230469 10.988281 22.160156 C 11.625 21.929688 11.625 21.929688 12.160156 21.546875 Z M 12.160156 21.546875 "/>
<path style=" stroke:none;fill-rule:nonzero;fill:rgb(100%,100%,100%);fill-opacity:1;" d="M 13.652344 18.132812 C 14.078125 18.347656 14.078125 18.347656 14.253906 18.785156 C 14.308594 19.664062 14.003906 20.324219 13.652344 21.121094 C 13.371094 21.121094 13.089844 21.121094 12.800781 21.121094 C 12.84375 20.976562 12.886719 20.832031 12.933594 20.683594 C 12.988281 20.492188 13.046875 20.300781 13.105469 20.105469 C 13.191406 19.824219 13.191406 19.824219 13.277344 19.535156 C 13.414062 19.070312 13.539062 18.605469 13.652344 18.132812 Z M 13.652344 18.132812 "/>
<path style=" stroke:none;fill-rule:nonzero;fill:rgb(100%,100%,100%);fill-opacity:1;" d="M 8.960938 17.066406 C 8.746094 17.707031 8.746094 17.707031 8.390625 17.917969 C 7.507812 18.242188 6.902344 18.453125 5.972656 18.132812 C 6.816406 17.160156 7.710938 17.007812 8.960938 17.066406 Z M 8.960938 17.066406 "/>
<path style=" stroke:none;fill-rule:nonzero;fill:rgb(100%,100%,100%);fill-opacity:1;" d="M 5.546875 18.773438 C 5.757812 18.84375 5.96875 18.914062 6.1875 18.988281 C 6.269531 19.324219 6.347656 19.660156 6.425781 20 C 6.472656 20.1875 6.515625 20.375 6.5625 20.570312 C 6.621094 21.191406 6.515625 21.453125 6.1875 21.972656 C 5.378906 20.964844 5.484375 19.996094 5.546875 18.773438 Z M 5.546875 18.773438 "/>
<path style=" stroke:none;fill-rule:nonzero;fill:rgb(100%,100%,100%);fill-opacity:1;" d="M 7 25.320312 C 7.152344 25.34375 7.308594 25.363281 7.464844 25.386719 C 7.378906 25.488281 7.292969 25.585938 7.203125 25.691406 C 7.027344 25.890625 7.027344 25.890625 6.851562 26.09375 C 6.738281 26.222656 6.625 26.355469 6.507812 26.492188 C 6.152344 26.910156 6.152344 26.910156 5.761719 27.519531 C 5.621094 27.519531 5.476562 27.519531 5.332031 27.519531 C 5.265625 27.054688 5.265625 27.054688 5.332031 26.453125 C 6.140625 25.414062 6.140625 25.414062 7 25.320312 Z M 7 25.320312 "/>
<path style=" stroke:none;fill-rule:nonzero;fill:rgb(100%,100%,100%);fill-opacity:1;" d="M 17.921875 8.320312 C 19.65625 8.1875 19.65625 8.1875 20.386719 8.71875 C 20.691406 9.171875 20.691406 9.171875 20.691406 9.601562 C 19.710938 9.445312 18.84375 9.105469 17.921875 8.746094 C 17.921875 8.605469 17.921875 8.464844 17.921875 8.320312 Z M 17.921875 8.320312 "/>
<path style=" stroke:none;fill-rule:nonzero;fill:rgb(100%,100%,100%);fill-opacity:1;" d="M 31.148438 1.066406 C 31.058594 2.097656 30.621094 2.523438 29.867188 3.199219 C 29.65625 3.128906 29.445312 3.058594 29.226562 2.988281 C 29.570312 1.960938 29.96875 1.066406 31.148438 1.066406 Z M 31.148438 1.066406 "/>
<path style=" stroke:none;fill-rule:nonzero;fill:rgb(100%,100%,100%);fill-opacity:1;" d="M 20.480469 10.238281 C 20.902344 10.34375 20.902344 10.34375 21.332031 10.453125 C 21.339844 10.765625 21.34375 11.074219 21.347656 11.386719 C 21.347656 11.558594 21.351562 11.734375 21.355469 11.910156 C 21.332031 12.375 21.332031 12.375 21.121094 12.800781 C 20.839844 12.660156 20.558594 12.519531 20.265625 12.375 C 20.300781 12.140625 20.335938 11.90625 20.375 11.667969 C 20.496094 10.90625 20.496094 10.90625 20.480469 10.238281 Z M 20.480469 10.238281 "/>
<path style=" stroke:none;fill-rule:nonzero;fill:rgb(100%,100%,100%);fill-opacity:1;" d="M 21.546875 4.90625 C 21.617188 5.117188 21.6875 5.328125 21.761719 5.546875 C 21.417969 5.664062 21.078125 5.78125 20.734375 5.894531 C 20.542969 5.957031 20.351562 6.023438 20.15625 6.089844 C 19.625 6.1875 19.625 6.1875 18.988281 5.761719 C 19.847656 5.078125 20.449219 4.878906 21.546875 4.90625 Z M 21.546875 4.90625 "/>
<path style=" stroke:none;fill-rule:nonzero;fill:rgb(100%,100%,100%);fill-opacity:1;" d="M 17.921875 6.398438 C 18.273438 6.46875 18.625 6.539062 18.988281 6.613281 C 18.789062 6.859375 18.589844 7.101562 18.386719 7.347656 C 18.21875 7.550781 18.21875 7.550781 18.050781 7.757812 C 17.707031 8.105469 17.707031 8.105469 17.066406 8.320312 C 16.925781 8.179688 16.785156 8.039062 16.640625 7.894531 C 17.0625 7.402344 17.484375 6.90625 17.921875 6.398438 Z M 17.921875 6.398438 "/>
<path style=" stroke:none;fill-rule:nonzero;fill:rgb(100%,100%,100%);fill-opacity:1;" d="M 14.292969 14.933594 C 14.503906 15.003906 14.714844 15.074219 14.933594 15.148438 C 14.910156 15.492188 14.882812 15.839844 14.851562 16.1875 C 14.839844 16.378906 14.824219 16.574219 14.808594 16.773438 C 14.71875 17.28125 14.71875 17.28125 14.292969 17.707031 C 13.867188 17.101562 13.847656 16.671875 13.933594 15.960938 C 14.078125 15.148438 14.078125 15.148438 14.292969 14.933594 Z M 14.292969 14.933594 "/>
<path style=" stroke:none;fill-rule:nonzero;fill:rgb(100%,100%,100%);fill-opacity:1;" d="M 14.507812 11.945312 C 14.648438 11.945312 14.789062 11.945312 14.933594 11.945312 C 15.207031 13.53125 15.207031 13.53125 14.933594 14.292969 C 14.722656 14.292969 14.511719 14.292969 14.292969 14.292969 C 14.363281 13.519531 14.433594 12.746094 14.507812 11.945312 Z M 14.507812 11.945312 "/>
<path style=" stroke:none;fill-rule:nonzero;fill:rgb(100%,100%,100%);fill-opacity:1;" d="M 9.601562 17.707031 C 9.671875 17.707031 9.742188 17.707031 9.8125 17.707031 C 9.8125 18.480469 9.8125 19.253906 9.8125 20.054688 C 9.53125 20.054688 9.25 20.054688 8.960938 20.054688 C 9.027344 19.703125 9.09375 19.351562 9.160156 19 C 9.195312 18.804688 9.234375 18.609375 9.273438 18.40625 C 9.386719 17.921875 9.386719 17.921875 9.601562 17.707031 Z M 9.601562 17.707031 "/>
<path style=" stroke:none;fill-rule:nonzero;fill:rgb(100%,100%,100%);fill-opacity:1;" d="M 24.320312 4.480469 C 24.390625 4.761719 24.460938 5.042969 24.535156 5.332031 C 24.261719 5.347656 23.988281 5.359375 23.707031 5.375 C 23.554688 5.378906 23.398438 5.386719 23.242188 5.394531 C 23.105469 5.375 22.96875 5.355469 22.828125 5.332031 C 22.6875 5.121094 22.546875 4.910156 22.398438 4.691406 C 23.351562 4.585938 23.351562 4.585938 24.320312 4.480469 Z M 24.320312 4.480469 "/>
</g>
</svg>
